<svg width="238" height="230" viewBox="0 0 238 230" fill="none" xmlns="http://www.w3.org/2000/svg">
<path d="M95.5094 0.646498C95.6694 0.646498 95.9894 0.806496 96.3094 0.806496C98.2294 1.1265 99.0294 2.0865 98.3894 4.1665C98.0694 5.6065 97.4294 7.2065 96.6294 8.6465C94.3894 12.1665 92.1494 15.8465 89.9094 19.3665C87.1894 23.5265 84.1494 27.3665 81.1094 31.3665C78.5494 34.7265 75.8294 38.0865 73.1094 41.6065C71.3494 44.0065 69.2694 46.2465 67.3494 48.6465C65.5894 50.8865 63.6694 53.1265 61.9094 55.3665C59.9894 57.6065 58.0694 59.8465 56.3094 62.2465C50.5494 70.0865 44.3094 78.2465 37.9094 85.9265C37.5894 86.2465 37.4294 86.5665 37.2694 87.0465C37.1094 87.3665 37.1094 87.6865 37.4294 88.0065C37.7494 88.4865 37.9094 88.0065 38.2294 88.0065C39.3494 87.5265 40.4694 88.0065 40.9494 89.2865C41.1094 90.0865 41.2694 91.0465 41.4294 91.8465C41.5894 93.1265 42.2294 93.4465 43.5094 92.9665C45.1094 92.4865 46.3894 91.2065 47.6694 90.2465C49.7494 88.4865 51.9894 87.3665 54.3894 86.0865C54.7094 85.9265 55.1894 85.7665 55.3494 86.2465C55.5094 86.5665 55.0294 86.7265 54.7094 86.7265C51.9894 88.4865 49.7494 90.5665 47.1894 92.4865C46.3894 93.2865 45.4294 93.9265 44.4694 94.4065C42.0694 95.2065 39.9894 94.0865 39.6694 91.5265C39.5094 90.8865 39.6694 90.0865 39.1894 89.9265C38.5494 89.6065 38.2294 90.5665 37.7494 90.8865C37.1094 91.3665 36.6294 92.1665 36.3094 92.9665C36.1494 93.4465 35.9894 94.0865 35.1894 93.7665C34.5494 93.6065 34.5494 93.1265 34.5494 92.4865C35.1894 88.3265 36.1494 84.4865 37.7494 80.6465C39.8294 75.0465 42.3894 69.7665 44.6294 64.3265C47.0294 59.0465 49.5894 53.6065 52.3094 48.4865C53.9094 45.6065 55.8294 42.8865 57.5894 40.1665C60.9494 35.2065 64.4694 30.4065 68.3094 25.7665C72.1494 21.2865 75.8294 16.6465 79.9894 12.4865C83.6694 8.6465 87.5094 5.1265 91.6694 1.9265C92.7894 1.1265 94.0694 0.806496 95.5094 0.646498ZM39.0294 81.6065C39.3494 81.6065 39.5094 81.4465 39.6694 81.2865C42.7094 77.6065 45.9094 73.9265 48.7894 70.0865C53.4294 64.0065 57.9094 58.0865 62.7094 52.3265C69.2694 44.4865 75.8294 36.6465 81.9094 28.4865C86.0694 22.8865 90.2294 17.2865 93.7494 11.2065C95.1894 8.6465 96.7894 6.2465 97.4294 3.5265C97.7494 2.2465 97.1094 1.4465 95.8294 1.4465C94.7094 1.4465 93.5894 1.76649 92.6294 2.40649C89.4294 4.8065 86.5494 7.52649 83.6694 10.2465C79.3494 14.2465 75.6694 18.7265 71.8294 23.2065C68.7894 26.5665 66.0694 30.2465 63.3494 33.7665C60.7894 37.1265 58.8694 40.8065 56.4694 44.3265C52.3094 50.4065 49.4294 56.9665 46.5494 63.8465C44.4694 68.6465 42.0694 73.4465 40.1494 78.2465C39.8294 79.3665 39.3494 80.4865 39.0294 81.6065ZM79.2457 86.4065C78.2857 86.4065 77.6457 86.5665 76.8457 86.8865C72.3657 88.9665 67.4057 89.9265 62.6057 90.8865C61.0057 91.2065 59.4057 91.0465 58.4457 89.4465C58.1257 88.9665 57.9657 89.1265 57.6457 89.4465C57.1657 89.9265 56.5257 90.4065 56.0457 91.0465C54.9257 91.8465 53.9657 91.6865 53.3257 90.4065C52.3657 88.4865 52.8457 86.4065 54.9257 85.4465C55.5657 85.1265 56.2057 84.6465 56.8457 84.3265C57.4857 84.0065 57.9657 84.1665 58.2857 84.6465C58.7657 85.1265 58.9257 85.4465 58.1257 85.7665C57.0057 85.9265 56.2057 86.5665 55.2457 87.0465C54.9257 87.3665 54.6057 87.6865 54.4457 88.1665C54.4457 88.6465 54.4457 89.1265 54.7657 89.2865C55.2457 89.7665 55.4057 89.1265 55.5657 88.9665C56.8457 88.0065 57.9657 86.8865 59.0857 85.9265C59.5657 85.4465 59.8857 85.1265 60.5257 85.6065C61.0057 85.9265 61.0057 86.4065 60.6857 87.0465C60.3657 87.6865 59.7257 88.3265 60.2057 88.9665C60.8457 89.6065 61.6457 89.4465 62.4457 89.2865C67.5657 88.6465 72.5257 87.2065 77.4857 85.9265C78.1257 85.7665 78.7657 85.2865 79.2457 86.2465V86.4065ZM78.9882 96.1665C76.4282 96.1665 74.8282 94.2465 75.6282 91.8465C76.2682 89.9265 77.0682 88.1665 77.7082 86.4065C78.0282 85.7665 78.3482 85.2865 79.1482 85.6065C79.6282 85.9265 79.4682 86.5665 79.1482 87.0465C78.5082 88.9665 77.3882 90.8865 77.0682 92.9665C76.7482 94.4065 77.2282 94.8865 78.8282 94.8865C80.4282 94.7265 81.8682 93.7665 83.3082 92.9665C85.0682 92.0065 84.9082 91.5265 86.3482 89.9265C86.8282 89.4465 86.9882 89.1265 86.3482 88.4865C85.7082 87.8465 85.7082 87.0465 86.3482 86.2465C86.9882 85.6065 87.6282 84.8065 88.2682 84.0065C88.7482 83.3665 89.3882 83.0465 90.1882 83.5265C91.1482 83.8465 91.4682 84.6465 91.1482 85.6065C91.1482 86.0865 90.9882 86.5665 90.6682 86.8865C90.3482 87.6865 90.6682 88.0065 91.3082 87.8465C92.7482 87.5265 94.1882 87.3665 95.7882 87.0465C98.0282 86.7265 100.268 86.2465 102.508 85.9265C102.828 85.9265 103.308 85.7665 103.308 86.0865C103.468 86.7265 102.828 86.5665 102.668 86.5665C98.1882 87.8465 93.7082 89.1265 89.2282 89.6065C88.4282 89.6065 88.1082 90.0865 87.6282 90.5665C85.0682 93.2865 84.1082 94.7265 80.4282 96.0065C80.1082 96.1665 79.6282 96.1665 78.9882 96.1665ZM87.9482 88.0065C88.5882 88.0065 90.1882 85.4465 90.0282 84.9665C89.8682 84.6465 89.7082 84.6465 89.3882 84.8065C88.5882 85.4465 87.7882 86.2465 87.3082 87.2065C87.1482 87.6865 87.4682 88.0065 87.9482 88.0065ZM123.051 86.0865C119.051 87.8465 114.891 89.4465 110.731 90.7265C109.131 91.0465 107.691 91.5265 106.091 91.8465C104.651 92.0065 103.371 91.6865 102.091 91.0465C100.811 90.5665 100.491 89.4465 100.331 88.1665C100.331 87.8465 100.491 87.5265 100.651 87.3665C101.771 86.0865 103.051 84.8065 104.651 84.0065C105.771 83.2065 107.051 83.3665 107.691 84.4865C108.171 85.4465 107.851 86.4065 106.731 87.2065C105.611 87.8465 104.331 88.3265 103.051 88.8065C102.731 88.8065 102.251 88.8065 102.251 89.1265C102.251 89.6065 102.571 89.9265 102.891 90.0865C103.851 90.5665 104.971 90.5665 105.931 90.4065C108.971 89.9265 111.851 88.9665 114.891 88.0065C117.131 87.3665 119.531 86.5665 121.771 85.9265C122.251 85.7665 122.571 85.7665 123.051 85.9265V86.0865ZM194.558 86.4065C193.598 86.4065 192.958 86.5665 192.158 86.8865C187.678 88.9665 182.718 89.9265 177.918 90.8865C176.318 91.2065 174.718 91.0465 173.758 89.4465C173.438 88.9665 173.278 89.1265 172.958 89.4465C172.478 89.9265 171.838 90.4065 171.358 91.0465C170.238 91.8465 169.278 91.6865 168.638 90.4065C167.678 88.4865 168.158 86.4065 170.238 85.4465C170.878 85.1265 171.518 84.6465 172.158 84.3265C172.798 84.0065 173.278 84.1665 173.598 84.6465C174.078 85.1265 174.238 85.4465 173.438 85.7665C172.318 85.9265 171.518 86.5665 170.558 87.0465C170.238 87.3665 169.918 87.6865 169.758 88.1665C169.758 88.6465 169.758 89.1265 170.078 89.2865C170.558 89.7665 170.718 89.1265 170.878 88.9665C172.158 88.0065 173.278 86.8865 174.398 85.9265C174.878 85.4465 175.198 85.1265 175.838 85.6065C176.318 85.9265 176.318 86.4065 175.998 87.0465C175.678 87.6865 175.038 88.3265 175.518 88.9665C176.158 89.6065 176.958 89.4465 177.758 89.2865C182.878 88.6465 187.838 87.2065 192.798 85.9265C193.438 85.7665 194.078 85.2865 194.558 86.2465V86.4065ZM195.581 87.3665C196.541 86.8865 197.341 86.2465 198.461 85.7665C198.781 85.6065 199.261 85.4465 199.741 85.4465C201.181 85.4465 201.501 85.7665 201.501 87.0465C201.501 88.4865 201.661 88.4865 202.941 88.3265C204.701 88.0065 206.301 87.2065 207.741 86.4065C208.221 86.0865 208.861 85.6065 209.341 86.0865C209.661 86.5665 209.021 87.0465 208.541 87.3665C206.781 88.4865 204.861 89.6065 202.781 89.7665C201.021 90.0865 200.061 89.1265 199.741 87.5265C199.581 86.8865 199.261 87.0465 198.781 87.2065C197.501 87.6865 196.541 88.6465 195.421 89.4465C194.781 90.0865 193.981 90.5665 193.341 91.2065C192.861 91.5265 192.221 91.5265 191.741 91.0465C191.261 90.5665 191.421 90.0865 191.741 89.6065C192.541 88.4865 193.341 87.5265 193.501 86.0865C193.661 85.4465 194.621 85.2865 195.261 85.4465C195.901 85.6065 195.741 86.2465 195.581 86.7265C195.581 86.8865 195.421 87.0465 195.581 87.3665ZM230.116 85.9265C228.996 86.8865 227.876 87.5265 226.756 88.1665C223.396 90.2465 218.276 93.2865 214.916 95.5265C214.596 95.8465 214.116 96.1665 213.956 96.6465C212.836 100.647 211.076 104.487 209.476 108.327C208.356 111.047 207.236 113.927 205.636 116.487C203.556 120.167 201.476 124.007 198.756 127.207C197.316 129.127 196.196 131.207 194.596 132.967C191.716 135.847 188.836 139.047 185.956 141.927C183.876 143.847 181.796 145.927 179.716 147.847C177.476 149.927 175.076 151.687 172.676 153.447C168.196 156.807 163.556 160.007 158.436 162.407C156.356 163.367 154.276 164.167 152.036 164.647C147.396 165.607 144.836 162.567 145.156 158.567C145.476 154.247 147.556 150.727 149.476 147.207C151.396 143.847 153.796 140.967 156.036 137.927C159.716 133.287 164.196 129.287 168.516 125.127C172.836 120.807 177.796 117.287 182.916 113.767C189.956 108.807 197.316 104.327 204.676 99.8465C206.756 98.7265 208.836 97.4465 211.076 96.3265C212.036 95.8465 212.676 95.0465 212.836 93.9265C212.836 92.1665 213.156 90.5665 213.316 88.9665C213.316 88.6465 213.476 88.1665 212.996 88.0065C212.676 88.0065 212.516 88.3265 212.356 88.6465C212.196 88.8065 212.036 88.9665 212.036 89.1265C211.396 90.0865 210.756 91.0465 209.476 90.5665C208.036 90.0865 207.236 89.1265 207.236 87.6865C207.076 87.3665 207.076 86.8865 207.236 86.5665C207.236 85.7665 207.556 85.4465 208.356 85.6065C208.996 85.7665 209.476 86.0865 209.156 86.8865C208.996 87.5265 208.676 88.4865 209.316 88.8065C209.956 89.1265 210.276 88.0065 210.596 87.5265C211.556 86.5665 212.356 85.6065 213.156 84.6465C213.476 84.1665 213.796 84.0065 214.276 84.3265C214.756 84.4865 215.076 84.8065 215.076 85.4465C215.236 87.5265 215.236 89.6065 214.756 91.6865C214.756 91.8465 214.756 91.8465 214.756 91.8465C214.756 92.4865 214.436 93.2865 214.916 93.7665C215.556 94.2465 216.036 93.6065 216.676 93.1265C221.796 89.9265 225.476 88.0065 229.316 85.9265C229.476 85.7665 229.636 85.7665 230.116 85.9265ZM149.156 163.847C151.556 163.687 153.316 163.207 155.236 162.407C158.276 160.967 161.316 159.367 164.196 157.447C168.196 154.887 171.876 152.167 175.556 149.287C180.036 145.767 184.036 141.767 187.876 137.767C190.756 134.727 193.636 131.847 196.036 128.327C198.916 124.487 201.316 120.647 203.716 116.487C205.956 112.647 207.716 108.807 209.316 104.647C210.116 102.727 211.076 100.807 211.556 98.7265C211.556 98.4065 211.876 98.0865 211.396 97.7665C211.076 97.6065 210.916 97.9265 210.596 97.9265C205.316 100.807 200.196 104.167 194.916 107.367C189.956 110.407 185.316 113.767 180.516 117.287C176.676 119.847 172.996 122.727 169.636 125.927C166.276 129.287 162.756 132.647 159.396 136.167C156.516 139.207 154.436 142.727 152.036 145.927C149.956 148.647 148.676 151.847 147.396 154.887C146.596 156.647 146.436 158.567 146.436 160.327C146.436 162.407 147.556 164.007 149.156 163.847ZM39.6694 150.567C39.3494 150.407 39.0294 150.727 38.7094 150.886C37.5894 151.367 36.1494 151.207 35.1894 150.247C34.7094 149.766 34.7094 149.287 34.8694 148.646C35.3494 147.367 36.1494 146.247 37.1094 145.127C37.7494 144.487 38.7094 144.327 39.5094 145.127C39.9894 145.767 40.3094 145.767 40.7894 145.127C40.9494 144.647 41.2694 144.007 41.9094 144.327C42.5494 144.487 42.7094 144.966 42.8694 145.607C43.1894 146.887 42.7094 148.007 42.3894 149.287C40.7894 152.807 38.5494 156.007 36.6294 159.366C36.4694 159.687 36.1494 160.007 35.9894 160.487C36.6294 160.487 36.9494 160.007 37.2694 159.687C41.9094 155.047 47.0294 150.886 51.8294 146.567C52.3094 146.086 52.9494 145.767 53.7494 145.767C51.9894 147.367 50.3894 148.967 48.6294 150.567C46.2294 152.807 43.8294 155.047 41.4294 157.287C39.3494 159.207 37.2694 161.127 35.1894 163.047C34.2294 163.847 33.5894 164.967 33.1094 166.247C32.7894 166.887 31.8294 167.207 32.1494 168.007C32.3094 168.647 33.1094 168.967 33.4294 169.447C34.8694 171.207 35.5094 172.967 35.3494 175.367C35.1894 180.167 33.5894 184.647 31.9894 189.287C30.7094 192.967 29.1094 196.327 27.0294 199.527C24.7894 203.367 22.3894 207.047 19.8294 210.727C17.5894 213.927 15.3494 216.967 12.9494 220.167C10.8694 222.727 8.94941 225.447 6.54941 227.847C5.58941 228.807 4.62941 229.767 3.18941 229.767C1.42941 229.927 0.149413 228.807 0.469413 227.047C0.789412 224.487 2.06941 222.087 3.34941 219.687C6.38941 214.087 9.74941 208.647 12.7894 203.047C16.1494 196.327 19.3494 189.607 22.5494 182.887C24.7894 178.407 27.0294 174.247 29.2694 169.927C29.5894 169.287 30.3894 168.647 29.7494 168.167C29.1094 167.527 28.6294 168.487 27.9894 168.807C25.7494 170.087 23.6694 171.527 21.1094 172.327C20.3094 172.487 19.6694 172.647 18.8694 172.487C18.2294 172.167 18.0694 171.687 18.7094 171.207C21.5894 169.447 24.1494 167.047 27.8294 166.727C28.7894 166.727 29.4294 165.767 30.3894 165.287C31.9894 164.327 33.2694 163.207 34.0694 161.447C35.8294 158.087 37.5894 154.727 39.5094 151.527C39.6694 151.207 39.8294 150.886 39.6694 150.567ZM34.2294 174.407C34.2294 173.287 33.9094 171.367 32.6294 169.607C31.9894 168.807 31.5094 168.807 31.0294 169.767C28.9494 173.127 27.1894 176.807 25.4294 180.327C23.1894 184.647 20.9494 188.967 18.8694 193.287C16.1494 198.567 13.7494 203.847 10.8694 209.127C8.46941 213.287 6.06941 217.287 3.98941 221.447C3.02941 223.367 2.22941 225.287 1.74941 227.207C1.58941 227.687 1.58941 228.167 1.90941 228.487C2.38941 228.807 2.70941 228.647 3.18941 228.487C3.82941 228.327 4.46941 227.847 4.94941 227.367C6.70941 225.767 8.30941 224.007 9.74941 222.087C14.0694 216.487 18.2294 210.727 22.0694 204.807C26.5494 198.247 30.2294 191.527 32.6294 183.847C33.4294 181.127 34.2294 178.247 34.2294 174.407ZM37.2694 149.766C37.5894 149.766 37.9094 149.607 38.2294 149.287C38.7094 148.487 39.0294 147.847 39.5094 147.206C39.8294 146.727 39.8294 146.406 39.5094 146.247C39.0294 145.927 38.7094 145.767 38.2294 146.086C37.5894 147.047 36.9494 147.847 36.6294 148.967C36.4694 149.447 36.6294 149.766 37.2694 149.766ZM60.5669 152.326C58.6469 152.326 57.2069 151.367 56.7269 149.447C56.5669 148.807 56.4069 149.127 56.0869 149.287C55.1269 149.927 54.1669 150.567 53.0469 151.207C52.2469 151.847 51.2869 151.847 50.3269 151.207C49.6869 150.727 49.5269 150.087 49.8469 149.287C50.4869 148.167 51.2869 147.047 52.2469 146.247C52.5669 145.927 52.8869 145.607 53.3669 146.086C53.8469 146.567 53.6869 146.887 53.2069 147.367C52.8869 147.847 52.4069 148.487 51.9269 148.967C51.7669 149.287 51.4469 149.607 51.7669 149.927C52.0869 150.247 52.2469 149.927 52.5669 149.766C54.1669 148.967 55.2869 147.847 56.7269 146.727C57.3669 146.406 58.0069 145.927 58.6469 145.447C59.2869 145.127 59.7669 145.127 60.0869 145.447C60.5669 145.927 60.2469 146.406 59.9269 146.727C59.4469 147.526 58.8069 148.327 58.6469 149.287C58.3269 150.247 58.6469 150.727 59.7669 150.886C60.7269 151.047 61.5269 150.727 62.3269 150.567C65.3669 149.447 68.0869 147.847 70.9669 146.406C71.4469 146.247 72.0869 145.767 72.2469 146.086C72.5669 146.727 71.7669 146.887 71.2869 147.206C69.2069 148.807 66.9669 150.247 64.4069 151.207C63.2869 151.687 62.0069 152.326 60.5669 152.326ZM92.4257 146.086C88.4257 147.847 84.2657 149.447 80.1057 150.727C78.5057 151.047 77.0657 151.527 75.4657 151.847C74.0257 152.006 72.7457 151.687 71.4657 151.047C70.1857 150.567 69.8657 149.447 69.7057 148.167C69.7057 147.847 69.8657 147.526 70.0257 147.367C71.1457 146.086 72.4257 144.807 74.0257 144.007C75.1457 143.207 76.4257 143.367 77.0657 144.487C77.5457 145.447 77.2257 146.406 76.1057 147.206C74.9857 147.847 73.7057 148.327 72.4257 148.807C72.1057 148.807 71.6257 148.807 71.6257 149.127C71.6257 149.607 71.9457 149.927 72.2657 150.087C73.2257 150.567 74.3457 150.567 75.3057 150.407C78.3457 149.927 81.2257 148.967 84.2657 148.007C86.5057 147.367 88.9057 146.567 91.1457 145.927C91.6257 145.767 91.9457 145.767 92.4257 145.927V146.086ZM72.7644 183.847C70.2044 183.847 69.2444 182.407 69.7244 180.167C70.0444 178.407 71.0044 176.967 71.9644 175.527C75.4844 170.247 79.8044 165.607 84.6044 161.607C87.3244 159.527 89.8844 157.287 92.4444 155.047C92.9244 154.727 92.9244 154.247 92.9244 153.767C92.6044 151.687 92.1244 149.766 91.3244 147.847C91.0044 147.047 90.6844 146.247 90.6844 145.447C90.2044 143.207 92.1244 140.967 94.5244 141.286C94.6844 141.286 95.0044 141.286 95.1644 141.447C95.4844 141.447 95.6444 141.606 95.4844 141.767C95.4844 142.087 95.3244 142.087 95.1644 142.087C94.5244 142.087 94.0444 142.247 93.5644 142.406C91.8044 143.367 91.6444 144.007 92.1244 145.927C92.7644 148.167 93.8844 150.407 94.2044 152.807C94.3644 153.607 94.8444 153.127 95.1644 152.967C97.5644 151.207 99.8044 149.447 102.044 147.687C102.844 147.206 103.644 146.567 104.444 146.086C104.764 145.767 105.084 145.767 105.244 146.086C105.564 146.406 105.404 146.567 105.244 146.887C105.084 147.047 104.764 147.206 104.604 147.367C101.244 149.607 98.2044 152.167 95.0044 154.727C94.6844 154.887 94.3644 155.207 94.3644 155.847C94.6844 161.927 92.2844 167.207 88.6044 172.007C86.5244 174.727 84.1244 177.127 81.5644 179.367C79.3244 181.287 76.7644 182.887 73.8844 183.687C73.4044 183.847 72.9244 183.847 72.7644 183.847ZM71.0044 181.127C70.8444 182.887 71.3244 183.207 72.9244 182.887C74.3644 182.567 75.4844 182.087 76.7644 181.447C81.2444 178.727 84.9244 175.207 87.9644 171.047C90.6844 167.047 92.7644 162.567 93.0844 157.767C93.0844 157.287 93.4044 156.967 92.9244 156.647C92.4444 156.487 92.2844 156.806 91.9644 156.967C89.0844 159.527 86.0444 161.927 83.1644 164.487C79.4844 167.847 76.1244 171.527 73.2444 175.527C72.1244 177.287 71.0044 178.887 71.0044 181.127ZM124.926 145.927C123.486 147.847 121.406 148.967 119.646 150.567C117.246 152.487 114.846 154.566 112.446 156.487C110.366 158.247 108.126 159.687 105.726 160.967C104.286 161.607 102.686 161.287 101.406 160.327C99.9657 159.366 99.3257 157.927 99.4857 156.167C99.9657 153.127 101.246 150.407 102.846 147.847C107.166 140.327 112.446 133.446 117.726 126.727C118.046 126.247 118.526 125.927 118.206 125.447C118.046 125.127 117.406 125.286 116.926 125.286C114.206 125.607 111.326 125.607 108.446 125.927C103.006 126.406 97.7257 126.886 92.2857 127.526C86.0457 128.487 79.8057 129.126 73.5657 129.927C70.6857 130.407 67.8057 130.727 64.9257 130.247C64.2857 130.247 63.4857 129.927 63.0057 129.446C62.8457 129.126 62.5257 128.967 62.6857 128.646C62.8457 128.487 63.1657 128.487 63.3257 128.646C64.9257 128.646 66.5257 128.487 67.9657 128.646C73.0857 129.446 78.0457 128.006 83.1657 127.526C90.2057 126.886 97.2457 125.766 104.446 125.127C109.246 124.807 114.046 124.487 119.006 124.007C119.646 124.007 120.126 123.687 120.446 123.206C122.366 120.807 124.446 118.566 126.366 116.166C127.486 114.886 128.606 113.607 129.726 112.326C129.886 112.007 130.046 111.846 130.366 111.686C130.846 111.206 131.486 111.046 132.126 111.527C132.766 111.846 132.446 112.486 132.286 113.126C131.486 114.566 130.526 116.007 129.566 117.287C128.286 119.046 126.846 120.807 125.566 122.567C125.246 122.726 124.926 123.047 125.086 123.367C125.246 123.846 125.726 123.687 126.046 123.687C132.126 123.687 138.366 123.526 144.446 123.687C151.486 123.846 158.686 124.326 165.726 125.607C166.846 125.927 167.806 126.086 168.926 127.047C167.326 126.886 165.886 126.406 164.606 126.247C159.166 125.607 153.726 125.127 148.286 124.966C143.806 124.807 139.486 124.487 135.006 124.646C131.646 124.646 128.286 124.807 124.926 124.807C123.806 124.807 123.006 125.286 122.366 126.247C119.486 129.766 116.606 133.287 113.566 136.647C111.326 139.207 108.926 141.447 106.846 144.167C104.286 147.687 102.046 151.527 100.926 156.007C100.606 157.287 100.926 158.567 102.046 159.366C103.326 160.327 104.606 160.167 105.886 159.527C107.966 158.247 110.046 156.806 112.126 155.367C116.286 152.006 120.126 149.127 124.126 146.086C124.286 145.927 124.606 145.767 124.926 145.927ZM131.006 112.967C130.526 112.807 130.366 113.126 130.206 113.286C129.086 114.566 127.806 115.847 126.686 117.287C125.246 119.046 123.646 120.966 122.206 122.887C122.046 123.206 121.726 123.367 122.046 123.687C122.366 124.007 122.686 123.846 122.846 123.687C123.166 123.526 123.326 123.367 123.486 123.206C125.726 120.327 128.286 117.606 130.206 114.566C130.526 114.086 131.006 113.607 131.006 112.967ZM114.686 132.967C116.926 130.886 118.846 128.487 120.766 126.247C121.086 125.927 121.566 125.607 121.246 125.286C120.766 124.807 120.286 125.286 119.966 125.607C119.806 125.766 119.806 125.927 119.646 126.086C117.886 128.326 116.126 130.566 114.686 132.967ZM125.246 144.966C125.246 145.767 125.406 146.406 125.406 146.887C125.246 147.687 124.766 148.327 124.606 149.127C124.286 149.927 124.606 150.407 125.406 150.087C127.966 149.287 130.366 148.327 132.766 147.367C133.726 147.047 134.366 146.406 135.166 146.086C135.486 145.927 135.966 146.086 136.286 145.927C136.286 146.086 136.286 146.247 136.286 146.406C135.806 146.727 135.326 147.047 134.846 147.206C132.446 148.487 129.886 149.766 127.486 150.886C126.366 151.367 125.246 151.687 123.966 151.047C123.326 150.727 122.846 150.087 123.006 149.127C123.486 148.007 123.966 146.727 124.446 145.607C124.606 145.447 124.766 145.447 125.246 144.966ZM126.686 141.286C126.846 140.647 126.846 140.007 127.006 139.366C127.006 139.207 127.486 139.207 127.646 139.207C127.806 139.207 127.966 139.527 127.806 139.687C127.646 140.327 127.326 140.807 127.166 141.447C127.006 141.447 126.846 141.447 126.686 141.286ZM137.616 151.207C136.496 151.207 135.056 150.247 134.736 149.287C134.416 148.487 134.736 146.567 135.376 145.927C135.696 145.607 136.176 145.447 136.496 145.767C136.976 146.086 136.656 146.406 136.496 146.727C136.016 147.526 135.376 148.646 136.336 149.447C137.296 150.247 138.256 149.607 139.216 149.127C139.856 148.807 140.336 148.327 140.816 148.007C141.296 147.687 141.296 147.367 140.656 147.206C139.696 147.206 138.736 146.727 138.576 145.767C138.416 144.807 139.376 144.167 140.176 143.527C142.096 142.247 143.856 142.887 144.656 144.966C144.816 145.447 144.976 145.927 145.456 145.927C147.376 146.247 149.456 146.086 151.536 146.086C152.176 146.086 152.976 145.927 153.776 145.927C153.936 145.927 154.416 145.767 154.416 146.247C154.416 146.567 154.096 146.567 153.776 146.727C150.736 147.047 147.856 147.687 145.136 147.047C144.336 146.887 143.696 147.367 143.216 148.007C142.096 149.287 140.816 150.087 139.376 150.727C138.736 151.047 138.256 151.207 137.616 151.207ZM155.893 147.367C156.853 146.887 157.653 146.247 158.773 145.767C159.093 145.607 159.573 145.447 160.053 145.447C161.493 145.447 161.813 145.767 161.813 147.047C161.813 148.487 161.973 148.487 163.253 148.327C165.013 148.007 166.613 147.206 168.053 146.406C168.533 146.086 169.173 145.607 169.653 146.086C169.973 146.567 169.333 147.047 168.853 147.367C167.093 148.487 165.173 149.607 163.093 149.766C161.333 150.087 160.373 149.127 160.053 147.526C159.893 146.887 159.573 147.047 159.093 147.206C157.813 147.687 156.853 148.646 155.733 149.447C155.093 150.087 154.293 150.567 153.653 151.207C153.173 151.527 152.533 151.527 152.053 151.047C151.573 150.567 151.733 150.087 152.053 149.607C152.853 148.487 153.653 147.526 153.813 146.086C153.973 145.447 154.933 145.286 155.573 145.447C156.213 145.607 156.053 146.247 155.893 146.727C155.893 146.887 155.733 147.047 155.893 147.367ZM150.108 183.847C147.548 183.847 146.588 182.407 147.068 180.167C147.388 178.407 148.348 176.967 149.308 175.527C152.828 170.247 157.148 165.607 161.948 161.607C164.668 159.527 167.228 157.287 169.788 155.047C170.268 154.727 170.268 154.247 170.268 153.767C169.948 151.687 169.468 149.766 168.668 147.847C168.348 147.047 168.028 146.247 168.028 145.447C167.548 143.207 169.468 140.967 171.868 141.286C172.028 141.286 172.348 141.286 172.508 141.447C172.828 141.447 172.988 141.606 172.828 141.767C172.828 142.087 172.668 142.087 172.508 142.087C171.868 142.087 171.388 142.247 170.908 142.406C169.148 143.367 168.988 144.007 169.468 145.927C170.108 148.167 171.228 150.407 171.548 152.807C171.708 153.607 172.188 153.127 172.508 152.967C174.908 151.207 177.148 149.447 179.388 147.687C180.188 147.206 180.988 146.567 181.788 146.086C182.108 145.767 182.428 145.767 182.588 146.086C182.908 146.406 182.748 146.567 182.588 146.887C182.428 147.047 182.108 147.206 181.948 147.367C178.588 149.607 175.548 152.167 172.348 154.727C172.028 154.887 171.708 155.207 171.708 155.847C172.028 161.927 169.628 167.207 165.948 172.007C163.868 174.727 161.468 177.127 158.908 179.367C156.668 181.287 154.108 182.887 151.228 183.687C150.748 183.847 150.268 183.847 150.108 183.847ZM148.348 181.127C148.188 182.887 148.668 183.207 150.268 182.887C151.708 182.567 152.828 182.087 154.108 181.447C158.588 178.727 162.268 175.207 165.308 171.047C168.028 167.047 170.108 162.567 170.428 157.767C170.428 157.287 170.748 156.967 170.268 156.647C169.788 156.487 169.628 156.806 169.308 156.967C166.428 159.527 163.388 161.927 160.508 164.487C156.828 167.847 153.468 171.527 150.588 175.527C149.468 177.287 148.348 178.887 148.348 181.127ZM176.829 87.5265C176.349 88.1665 176.029 88.1665 175.389 87.6865C174.589 86.8865 174.269 85.7665 174.909 84.4865C175.869 82.0865 177.629 80.3265 179.389 78.7265C185.149 73.4465 191.549 69.2865 198.749 66.5665C204.669 64.3265 210.749 62.4065 216.989 61.7665C221.469 61.2865 225.789 61.4465 229.789 63.6865C234.269 65.9265 236.509 69.7665 237.149 74.5665C237.469 78.7265 236.669 82.5665 235.229 86.4065C233.629 91.0465 231.229 95.2065 228.509 99.3665C225.629 103.526 222.429 107.687 218.909 111.527C213.629 117.606 207.709 123.367 201.789 128.967C197.469 133.126 193.149 137.287 188.989 141.447C188.349 141.927 188.029 142.567 187.549 143.207C187.229 143.367 186.589 143.687 186.269 143.527C185.469 143.207 186.109 142.726 186.429 142.247C189.469 139.207 192.669 136.167 195.709 133.287C199.229 129.927 202.749 126.727 206.269 123.367C212.509 117.287 218.589 110.886 224.029 104.007C228.349 98.2465 232.349 92.3265 234.589 85.2865C236.029 80.9665 236.829 76.6465 235.549 72.1665C234.269 67.0465 230.749 64.3265 225.789 63.0465C222.589 62.2465 219.389 62.4065 216.189 62.8865C208.189 63.8465 200.509 66.4065 193.309 70.0865C187.709 72.9665 182.589 76.8065 178.269 81.6065C177.469 82.4065 176.829 83.5265 176.189 84.6465C175.549 85.9265 175.709 86.8865 176.829 87.5265ZM186.269 150.247C186.589 150.886 186.909 151.207 186.909 151.367C186.749 151.687 186.429 151.847 186.109 152.006C185.949 152.167 185.469 151.527 185.469 151.367C185.629 151.047 185.949 150.886 186.269 150.247Z" fill="#0E2C2C"/>
</svg>
